<?xml version="1.0" encoding="UTF-8" standalone="no"?>
<!DOCTYPE svg PUBLIC "-//W3C//DTD SVG 1.1//EN"
 "http://www.w3.org/Graphics/SVG/1.1/DTD/svg11.dtd">
<!-- Generated by graphviz version 2.43.0 (0)
 -->
<!-- Title: mechanism Pages: 1 -->
<svg width="495pt" height="138pt"
 viewBox="0.00 0.00 495.07 137.53" xmlns="http://www.w3.org/2000/svg" xmlns:xlink="http://www.w3.org/1999/xlink">
<g id="graph0" class="graph" transform="scale(1 1) rotate(0) translate(25.2 112.33)">
<title>mechanism</title>
<polygon fill="white" stroke="transparent" points="-25.2,25.2 -25.2,-112.33 469.87,-112.33 469.87,25.2 -25.2,25.2"/>
<!-- n0&#45;&gt;n1 -->
<!-- n0&#45;&gt;n1 -->
<g id="edge3" class="edge">
<title>n0&#45;&gt;n1</title>
<path fill="none" stroke="#64748b" stroke-width="1.15" d="M184.21,-72.18C203.97,-75.31 231.22,-75.63 252.55,-73.16"/>
<polygon fill="#64748b" stroke="#64748b" stroke-width="1.15" points="259.82,-72.17 253.13,-76.35 256.27,-72.73 252.7,-73.22 252.69,-73.14 252.68,-73.07 256.25,-72.58 252.25,-69.93 259.82,-72.17 259.82,-72.17"/>
</g>
<!-- n1&#45;&gt;n3 -->
<!-- n1&#45;&gt;n3 -->
<g id="edge4" class="edge">
<title>n1&#45;&gt;n3</title>
<path fill="none" stroke="#64748b" stroke-width="1.15" d="M314.28,-72.18C334.88,-75.43 363.59,-75.66 385.31,-72.86"/>
<polygon fill="#64748b" stroke="#64748b" stroke-width="1.15" points="392.68,-71.74 386.05,-76.02 389.13,-72.35 385.58,-72.89 385.56,-72.82 385.55,-72.74 389.11,-72.2 385.08,-69.61 392.68,-71.74 392.68,-71.74"/>
</g>
<!-- n2&#45;&gt;n0 -->
<g id="edge5" class="edge">
<title>n2&#45;&gt;n0</title>
<path fill="none" stroke="#64748b" stroke-width="1.15" d="M52.08,-27.32C72.07,-33.57 100.73,-42.53 122.88,-49.45"/>
<polygon fill="#64748b" stroke="#64748b" stroke-width="1.15" points="129.83,-51.62 121.99,-52.57 126.37,-50.62 122.93,-49.54 122.96,-49.47 122.98,-49.4 126.42,-50.48 123.92,-46.38 129.83,-51.62 129.83,-51.62"/>
</g>
<!-- n2&#45;&gt;n1 -->
<g id="edge6" class="edge">
<title>n2&#45;&gt;n1</title>
<path fill="none" stroke="#64748b" stroke-width="1.15" d="M53.94,-17.44C85.11,-15.22 138.87,-13.37 184,-21.8 207.93,-26.27 233.6,-35.86 253.2,-44.29"/>
<polygon fill="#64748b" stroke="#64748b" stroke-width="1.15" points="259.87,-47.21 251.98,-47.29 256.55,-45.84 253.25,-44.39 253.28,-44.32 253.31,-44.25 256.61,-45.7 254.58,-41.36 259.87,-47.21 259.87,-47.21"/>
</g>
<!-- n0 -->
<g id="node1" class="node">
<title>n0</title>
<path fill="#ffffff" stroke="#94a3b8" stroke-width="1.2" d="M172,-77.8C172,-77.8 142,-77.8 142,-77.8 136,-77.8 130,-71.8 130,-65.8 130,-65.8 130,-53.8 130,-53.8 130,-47.8 136,-41.8 142,-41.8 142,-41.8 172,-41.8 172,-41.8 178,-41.8 184,-47.8 184,-53.8 184,-53.8 184,-65.8 184,-65.8 184,-71.8 178,-77.8 172,-77.8"/>
<text text-anchor="middle" x="157" y="-57" font-family="DejaVu Sans" font-size="11.00" fill="#0f172a">a</text>
</g>
<!-- n1 -->
<g id="node2" class="node">
<title>n1</title>
<path fill="#ffffff" stroke="#94a3b8" stroke-width="1.2" d="M302,-77.8C302,-77.8 272,-77.8 272,-77.8 266,-77.8 260,-71.8 260,-65.8 260,-65.8 260,-53.8 260,-53.8 260,-47.8 266,-41.8 272,-41.8 272,-41.8 302,-41.8 302,-41.8 308,-41.8 314,-47.8 314,-53.8 314,-53.8 314,-65.8 314,-65.8 314,-71.8 308,-77.8 302,-77.8"/>
<text text-anchor="middle" x="287" y="-57" font-family="DejaVu Sans" font-size="11.00" fill="#0f172a">b</text>
</g>
<!-- n2 -->
<g id="node3" class="node">
<title>n2</title>
<ellipse fill="#eff6ff" stroke="#3b82f6" stroke-width="1.2" cx="27" cy="-19.8" rx="27" ry="19.6"/>
<text text-anchor="middle" x="27" y="-17" font-family="DejaVu Sans" font-size="11.00" fill="#0f172a">x</text>
</g>
<!-- n3 -->
<g id="node4" class="node">
<title>n3</title>
<ellipse fill="#fef3c7" stroke="#d97706" stroke-width="1.8" cx="417.33" cy="-59.8" rx="23.19" ry="23.19"/>
<ellipse fill="none" stroke="#d97706" stroke-width="1.8" cx="417.33" cy="-59.8" rx="27.17" ry="27.17"/>
<text text-anchor="middle" x="417.33" y="-57" font-family="DejaVu Sans" font-size="11.00" fill="#0f172a">y</text>
</g>
</g>
</svg>
